# xmcd
#
# Track frame offsets: 
#        182
#        19897
#        36900
#        58002
#        75200
#        92245
#        108837
#        127680
#        144705
#        156500
#        170367
#        180307
#        193755
#        205842
#        218952
#        232420
#        248470
#        265802
#        282740
#        299895
#        315770
#        332080
#
# Disc length: 4656 seconds
#
# Revision: 4
# Processed by: cddbd v1.5.2PL0 Copyright (c) Steve Scherf et al.
# Submitted via: ExactAudioCopy v1.1
#
DISCID=44122e16
DTITLE=Ray Charles - Complete Country and Western Recordings 1959-1986 -
DTITLE=Disc 4
DYEAR=1998
DGENRE=Country
TTITLE0=3-4 Time
TTITLE1=Shakin' Your Head
TTITLE2=I Had It All
TTITLE3=Do I Ever Cross Your Mind
TTITLE4=Woman Sensuous Woman
TTITLE5=Then I'll Be Over You
TTITLE6=If I Were You
TTITLE7=Workin' Man's Woman
TTITLE8=Ray Charles and Hank Williams, Jr. - Two Old Cats Like Us
TTITLE9=Ray Charles and The Oak Ridge Boys - This Old Heart (Is Gonna Ri
TTITLE9=se Again)
TTITLE10=Ray Charles and George Jones featuring Chet Atkins - We Didn't 
TTITLE10=See A Thing
TTITLE11=Ray Charles and Janie Fricke - Who Cares
TTITLE12=Ray Charles and Ricky Skaggs - Friendship
TTITLE13=Ray Charles and Mickey Gilley - It Ain't Gonna Worry My Mind
TTITLE14=Ray Charles and Merle Haggard - Little Hotel Room
TTITLE15=Ray Charles and Johnny Cash - Crazy Old Soldier
TTITLE16=Ray Charles and Willie Nelson - Seven Spanish Angels
TTITLE17=The Pages Of My Mind
TTITLE18=Slip Away
TTITLE19=Anybody With The Blues
TTITLE20=A Little Bit Of Heaven
TTITLE21=Dixie Moon
EXTD=Part of 4-CD box set
EXTT0=
EXTT1=
EXTT2=
EXTT3=
EXTT4=
EXTT5=
EXTT6=
EXTT7=
EXTT8=
EXTT9=
EXTT10=
EXTT11=
EXTT12=
EXTT13=
EXTT14=
EXTT15=
EXTT16=
EXTT17=
EXTT18=
EXTT19=
EXTT20=
EXTT21=
PLAYORDER=
